:FULLY-SPECIFIED
:DEGREES
596
root 3.81566 16.5091 -3.06693 188.736 -93.8532 -181.312
lowerback -0.0824339 -0.536619 -1.11739
upperback 0.138831 -0.721102 1.45324
thorax 0.220811 -0.365863 2.11287
lowerneck -19.3154 -1.74255 -1.67055
upperneck 19.1505 -2.81056 3.49046
head 9.29674 -1.0703 1.09414
rclavicle -1.11319e-014 1.86858e-014
rhumerus -33.3619 -3.40472 -82.1546
rradius 22.8415
rwrist 28.5487
rhand -24.5239 2.53257
rfingers 7.12502
rthumb 1.97138 -27.4381
lclavicle -1.11319e-014 1.86858e-014
lhumerus -28.0845 6.30143 88.64
lradius 16.8524
lwrist -18.5924
lhand -21.989 2.58829
lfingers 7.12502
lthumb 4.4194 32.5222
rfemur -20.7755 10.7325 23.9976
rtibia 21.7385
rfoot -7.21064 -16.5535
rtoes -0.910323
lfemur -7.9025 -2.53702 -22.3598
ltibia 44.2634
lfoot -7.03992 -4.90596
ltoes -24.4356
597
root 3.81722 16.508 -3.0824 194.5 -93.8912 -187.036
lowerback -0.0783534 -0.422446 -0.754458
upperback 0.106332 -0.570857 1.55264
thorax 0.17593 -0.290315 2.01167
lowerneck -19.3387 -1.80836 -1.63413
upperneck 19.163 -2.89512 3.41738
head 9.30596 -1.1147 1.05127
rclavicle -6.36111e-015 1.59028e-014
rhumerus -33.3757 -3.04053 -82.2604
rradius 23.062
rwrist 28.2661
rhand -24.5006 2.38513
rfingers 7.12502
rthumb 1.99387 -27.5853
lclavicle -6.36111e-015 1.59028e-014
lhumerus -28.2685 6.0832 88.7532
lradius 17.1033
lwrist -18.4931
lhand -21.9494 2.73371
lfingers 7.12502
lthumb 4.45763 32.6668
rfemur -20.0987 10.5034 24.6128
rtibia 21.1601
rfoot -7.42637 -16.237
rtoes -0.890562
lfemur -9.42724 -1.92687 -21.577
ltibia 46.8942
lfoot -5.28684 -5.35909
ltoes -24.1185
598
root 3.82112 16.5103 -3.09789 200.978 -94.0149 -193.476
lowerback -0.0498882 -0.321669 -0.324444
upperback 0.0825634 -0.438947 1.67482
thorax 0.128014 -0.224397 1.89612
lowerneck -19.3082 -1.87157 -1.60356
upperneck 19.0724 -2.97717 3.37581
head 9.27007 -1.15591 1.02071
rclavicle 3.97569e-015 -9.14409e-015
rhumerus -33.3341 -2.59253 -82.3892
rradius 23.2887
rwrist 27.7194
rhand -24.5273 2.37272
rfingers 7.12502
rthumb 1.96813 -27.5979
lclavicle 3.97569e-015 -9.14409e-015
lhumerus -28.4383 5.99539 88.8459
lradius 17.4142
lwrist -18.1757
lhand -21.8853 2.78386
lfingers 7.12502
lthumb 4.51949 32.7156
rfemur -19.3904 10.2678 25.3067
rtibia 20.5264
rfoot -7.53936 -15.9382
rtoes -0.877611
lfemur -10.9715 -1.35851 -20.7463
ltibia 49.4568
lfoot -4.63665 -5.36299
ltoes -26.0941
599
root 3.8276 16.5063 -3.10988 205.439 -94.1359 -197.966
lowerback 0.0504554 -0.236596 0.00579386
upperback 0.0921182 -0.326993 1.77314
thorax 0.0763233 -0.168796 1.81219
lowerneck -19.3302 -1.92922 -1.63913
upperneck 18.9971 -3.04377 3.3864
head 9.25044 -1.18805 1.02097
rclavicle -9.54166e-015 -3.57812e-015
rhumerus -33.244 -2.0456 -82.5078
rradius 23.4739
rwrist 27.4532
rhand -24.7039 2.30437
rfingers 7.12502
rthumb 1.7975 -27.6678
lclavicle -9.54166e-015 -3.57812e-015
lhumerus -28.5876 5.65776 89.0434
lradius 17.7639
lwrist -17.6389
lhand -22.123 2.69377
lfingers 7.12502
lthumb 4.29004 32.6303
rfemur -18.611 9.96763 25.8809
rtibia 19.8818
rfoot -7.62194 -15.6496
rtoes -1.16455
lfemur -12.4007 -0.895988 -20.1162
ltibia 51.9142
lfoot -5.07438 -5.0377
ltoes -27.0144
600
root 3.83892 16.5035 -3.12386 211.306 -94.3561 -203.888
lowerback 0.233421 -0.150418 0.473661
upperback 0.0965465 -0.212138 1.90282
thorax -0.0264848 -0.112131 1.68317
lowerneck -19.3002 -2.00198 -1.61363
upperneck 18.8619 -3.13379 3.33973
head 9.19933 -1.23408 0.988528
rclavicle 1.98785e-014 5.76476e-015
rhumerus -33.1365 -1.82677 -82.522
rradius 23.6277
rwrist 27.5608
rhand -24.9768 2.3225
rfingers 7.12502
rthumb 1.53399 -27.6517
lclavicle 1.98785e-014 5.76476e-015
lhumerus -28.7266 5.37469 89.2102
lradius 18.0716
lwrist -17.1664
lhand -22.4491 2.57959
lfingers 7.12502
lthumb 3.97511 32.5223
rfemur -17.8157 9.7836 26.607
rtibia 19.2404
rfoot -7.88333 -15.4663
rtoes -0.871555
lfemur -13.8155 -0.423843 -19.3444
ltibia 54.264
lfoot -5.91279 -4.33493
ltoes -26.9666
601
root 3.8498 16.4999 -3.13649 215.288 -94.575 -207.987
lowerback 0.446781 -0.109089 0.799795
upperback 0.148035 -0.155842 2.02993
thorax -0.0952967 -0.0852208 1.63089
lowerneck -19.2845 -2.0306 -1.58327
upperneck 18.6976 -3.16274 3.29494
head 9.139 -1.25095 0.964263
rclavicle -5.1684e-015 -3.18055e-015
rhumerus -32.9007 -1.39799 -82.5768
rradius 23.7446
rwrist 27.2892
rhand -25.045 2.35214
rfingers 7.12502
rthumb 1.46812 -27.6226
lclavicle -5.1684e-015 -3.18055e-015
lhumerus -28.8324 5.33105 89.3274
lradius 18.4102
lwrist -16.7574
lhand -22.7352 2.59216
lfingers 7.12502
lthumb 3.6988 32.5398
rfemur -16.9953 9.56132 27.2297
rtibia 18.6768
rfoot -7.8867 -15.2668
rtoes -1.28363
lfemur -15.1654 -0.0232039 -18.7362
ltibia 56.4375
lfoot -6.5887 -2.77408
ltoes -26.0919
602
root 3.86217 16.498 -3.15041 218.187 -94.7315 -211.005
lowerback 0.684825 -0.0362498 1.03053
upperback 0.198414 -0.0554598 2.12351
thorax -0.179497 -0.0361242 1.59718
lowerneck -19.2298 -2.07598 -1.61594
upperneck 18.5184 -3.21403 3.32634
head 9.06972 -1.27505 0.973817
rclavicle 3.97569e-016 1.37161e-014
rhumerus -32.6346 -1.18848 -82.5334
rradius 23.8098
rwrist 27.3827
rhand -25.0461 2.32337
rfingers 7.12502
rthumb 1.46709 -27.6513
lclavicle 3.97569e-016 1.37161e-014
lhumerus -28.9351 5.29811 89.4238
lradius 18.7273
lwrist -16.5624
lhand -23.1123 2.49116
lfingers 7.12502
lthumb 3.33464 32.4448
rfemur -16.2096 9.46641 27.7433
rtibia 18.1773
rfoot -8.00163 -15.2058
rtoes -1.65711
lfemur -16.5265 0.3775 -18.2765
ltibia 58.3975
lfoot -7.09283 -1.02576
ltoes -25.6773
603
root 3.87696 16.494 -3.16387 220.186 -94.8822 -213.153
lowerback 0.947459 0.012038 1.19747
upperback 0.273148 0.0131008 2.19909
thorax -0.251519 -0.00292354 1.58061
lowerneck -19.1952 -2.11377 -1.59276
upperneck 18.3251 -3.2641 3.33135
head 8.99797 -1.29739 0.965228
rclavicle -5.56597e-015 -3.97569e-016
rhumerus -32.2902 -1.09344 -82.4649
rradius 23.7981
rwrist 27.4971
rhand -25.2127 2.18525
rfingers 7.12502
rthumb 1.30611 -27.7905
lclavicle -5.56597e-015 -3.97569e-016
lhumerus -28.9941 4.93112 89.6532
lradius 19.0149
lwrist -15.8502
lhand -23.7602 2.40942
lfingers 7.12502
lthumb 2.70892 32.372
rfemur -15.4638 9.54924 28.1746
rtibia 17.8289
rfoot -8.25255 -15.3721
rtoes -1.51923
lfemur -17.8557 0.73938 -17.9035
ltibia 60.1123
lfoot -7.43606 0.498483
ltoes -24.6731
604
root 3.88935 16.4931 -3.17583 220.218 -94.8922 -213.394
lowerback 1.2395 0.0495956 1.13438
upperback 0.378309 0.0667539 2.21963
thorax -0.30863 0.0234457 1.63641
lowerneck -19.1732 -2.14103 -1.56391
upperneck 18.1602 -3.30665 3.35363
head 8.93844 -1.31379 0.962589
rclavicle 9.54166e-015 -6.16232e-015
rhumerus -31.8391 -1.11166 -82.3532
rradius 23.6555
rwrist 27.752
rhand -25.43 2.20969
rfingers 7.12502
rthumb 1.0963 -27.7672
lclavicle 9.54166e-015 -6.16232e-015
lhumerus -29.0543 4.98027 89.6953
lradius 19.2559
lwrist -15.8693
lhand -24.2996 2.29533
lfingers 7.12502
lthumb 2.18799 32.2639
rfemur -14.6958 9.59535 28.3877
rtibia 17.6068
rfoot -8.56386 -15.524
rtoes -1.58789
lfemur -19.0305 0.962303 -17.8096
ltibia 61.5454
lfoot -7.86939 1.91321
ltoes -23.7188
605
root 3.90454 16.4892 -3.1898 220.14 -94.8744 -213.473
lowerback 1.47946 0.0871957 1.0347
upperback 0.473552 0.11893 2.21275
thorax -0.346834 0.0492978 1.68434
lowerneck -19.1454 -2.16978 -1.55142
upperneck 17.998 -3.36345 3.44907
head 8.88109 -1.33037 0.985744
rclavicle 3.97569e-015 9.34288e-015
rhumerus -31.4024 -1.05893 -82.3378
rradius 23.5611
rwrist 27.7429
rhand -25.6356 2.06057
rfingers 7.12502
rthumb 0.897653 -27.9173
lclavicle 3.97569e-015 9.34288e-015
lhumerus -29.0978 4.84368 89.7524
lradius 19.5163
lwrist -15.5625
lhand -24.788 2.15826
lfingers 7.12502
lthumb 1.71629 32.1311
rfemur -14.0835 9.77356 28.5582
rtibia 17.5586
rfoot -8.94803 -15.7959
rtoes -1.49886
lfemur -20.2338 1.13363 -17.7545
ltibia 62.7289
lfoot -8.29135 3.28411
ltoes -22.8552
606
root 3.91995 16.4841 -3.20187 219.959 -94.8854 -213.447
lowerback 1.71841 0.115429 1.00319
upperback 0.553316 0.159662 2.17988
thorax -0.39993 0.0695056 1.66729
lowerneck -19.0964 -2.20874 -1.54605
upperneck 17.8832 -3.44017 3.56645
head 8.83759 -1.35475 1.015
rclavicle 3.97569e-015 2.98177e-015
rhumerus -30.9474 -1.43261 -82.1921
rradius 23.3338
rwrist 28.0525
rhand -25.7459 2.24279
rfingers 7.12502
rthumb 0.791193 -27.7355
lclavicle 3.97569e-015 2.98177e-015
lhumerus -29.1445 4.66886 89.7817
lradius 19.7451
lwrist -15.1676
lhand -25.2058 2.03751
lfingers 7.12502
lthumb 1.31279 32.0132
rfemur -13.5384 9.96137 28.7389
rtibia 17.6479
rfoot -9.26785 -16.0833
rtoes -1.84963
lfemur -21.3983 1.20116 -17.721
ltibia 63.6557
lfoot -8.71596 4.49128
ltoes -22.2722
607
root 3.93443 16.4798 -3.21298 219.234 -94.7747 -212.807
lowerback 1.85281 0.138151 0.856871
upperback 0.622715 0.189388 2.11422
thorax -0.405092 0.0846279 1.6812
lowerneck -19.0299 -2.21514 -1.55694
upperneck 17.7717 -3.47528 3.71778
head 8.79205 -1.35756 1.06406
rclavicle -9.54166e-015 1.64991e-014
rhumerus -30.4917 -1.84025 -82.0494
rradius 23.1819
rwrist 28.5711
rhand -25.8803 2.16236
rfingers 7.12502
rthumb 0.661338 -27.8164
lclavicle -9.54166e-015 1.64991e-014
lhumerus -29.2043 4.44876 89.8039
lradius 19.9589
lwrist -14.9858
lhand -25.676 2.01009
lfingers 7.12502
lthumb 0.858698 31.9881
rfemur -13.1339 10.1802 28.7717
rtibia 17.8624
rfoot -9.78121 -16.3081
rtoes -2.07933
lfemur -22.5609 1.19771 -17.8251
ltibia 64.3234
lfoot -9.234 5.40014
ltoes -21.3789
608
root 3.95084 16.4708 -3.22184 218.138 -94.7748 -211.802
lowerback 1.99783 0.125481 0.770753
upperback 0.691594 0.172427 2.0709
thorax -0.415532 0.0761052 1.68528
lowerneck -18.9781 -2.22759 -1.60344
upperneck 17.6943 -3.50749 3.85901
head 8.76123 -1.36217 1.11577
rclavicle -8.74653e-015 1.27222e-014
rhumerus -30.035 -2.0776 -81.9727
rradius 23.0945
rwrist 28.6384
rhand -25.9465 2.04987
rfingers 7.12502
rthumb 0.597392 -27.929
lclavicle -8.74653e-015 1.27222e-014
lhumerus -29.2192 4.27051 89.8323
lradius 20.0995
lwrist -14.7058
lhand -26.0487 1.82818
lfingers 7.12502
lthumb 0.498736 31.8073
rfemur -12.7478 10.2773 28.8541
rtibia 18.1219
rfoot -10.3414 -16.5382
rtoes -1.88025
lfemur -23.7012 1.07856 -17.9025
ltibia 64.756
lfoot -9.81826 6.06318
ltoes -20.9406
609
root 3.96452 16.4636 -3.23082 217.477 -94.676 -211.19
lowerback 2.07177 0.153969 0.670603
upperback 0.747479 0.209115 1.99929
thorax -0.400706 0.0946396 1.66703
lowerneck -18.9116 -2.25105 -1.66005
upperneck 17.6444 -3.55839 4.02043
head 8.73851 -1.37429 1.17359
rclavicle 7.95139e-016 -8.15017e-015
rhumerus -29.6097 -2.44122 -81.8612
rradius 23.0092
rwrist 29.0244
rhand -25.8662 1.92465
rfingers 7.12502
rthumb 0.67497 -28.054
lclavicle 7.95139e-016 -8.15017e-015
lhumerus -29.2245 4.09695 89.8255
lradius 20.2222
lwrist -14.5538
lhand -26.326 1.75716
lfingers 7.12502
lthumb 0.230837 31.7368
rfemur -12.4229 10.3296 28.9082
rtibia 18.4535
rfoot -10.9062 -16.6502
rtoes -2.13591
lfemur -24.7728 0.943125 -18.0131
ltibia 64.9255
lfoot -10.5201 6.45739
ltoes -20.6003
610
root 3.97953 16.4541 -3.23905 217.376 -94.6495 -211.114
lowerback 2.12245 0.169837 0.695282
upperback 0.781222 0.231281 1.91748
thorax -0.394652 0.106039 1.56859
lowerneck -18.8123 -2.27481 -1.66856
upperneck 17.6275 -3.62082 4.15769
head 8.72036 -1.3917 1.214
rclavicle -1.59028e-015 -1.70955e-014
rhumerus -29.2363 -2.75736 -81.8528
rradius 22.9326
rwrist 29.1834
rhand -26.0386 1.93049
rfingers 7.12502
rthumb 0.508436 -28.0486
lclavicle -1.59028e-015 -1.70955e-014
lhumerus -29.1995 4.00013 89.7215
lradius 20.3103
lwrist -14.5034
lhand -26.3853 1.75925
lfingers 7.12502
lthumb 0.17362 31.7389
rfemur -12.1392 10.5692 29.0232
rtibia 18.8005
rfoot -11.5168 -16.9487
rtoes -1.93195
lfemur -25.8737 0.711135 -18.026
ltibia 64.8702
lfoot -11.3886 6.54904
ltoes -20.6262
